<?xml version="1.0" encoding="UTF-8"?>
<!DOCTYPE svg PUBLIC "-//W3C//DTD SVG 1.1//EN" "http://www.w3.org/Graphics/SVG/1.1/DTD/svg11.dtd">
<!-- Creator: CorelDRAW 2021 (64-Bit) -->
<svg xmlns="http://www.w3.org/2000/svg" xml:space="preserve" width="16.7177mm" height="8.007mm" version="1.1" style="shape-rendering:geometricPrecision; text-rendering:geometricPrecision; image-rendering:optimizeQuality; fill-rule:evenodd; clip-rule:evenodd"
viewBox="0 0 432.61 207.2"
 xmlns:xlink="http://www.w3.org/1999/xlink"
 xmlns:xodm="http://www.corel.com/coreldraw/odm/2003">
 <defs>
  <style type="text/css">
   <![CDATA[
    .fil0 {fill:#009933;fill-rule:nonzero}
    .fil2 {fill:#666666;fill-rule:nonzero}
    .fil1 {fill:white;fill-rule:nonzero}
   ]]>
  </style>
 </defs>
 <g id="Layer_x0020_1">
  <metadata id="CorelCorpID_0Corel-Layer"/>
  <path class="fil0" d="M391.93 155.12l3.35 0c5.72,0 10.38,-4.66 10.38,-10.38l0 -40.45 26.49 -89.2c0.96,-3.24 0.39,-6.45 -1.63,-9.16 -2.02,-2.71 -4.93,-4.17 -8.32,-4.17l-1.1 0c-4.78,0 -8.82,3.11 -10.04,7.73l-13.84 52.56c-0.31,1.16 -1.32,1.95 -2.53,1.95 -1.2,0 -2.22,-0.78 -2.53,-1.95l-13.84 -52.56c-1.22,-4.62 -5.26,-7.73 -10.04,-7.73l-3.29 0c-3.38,0 -6.29,1.46 -8.32,4.17 -2.02,2.71 -2.59,5.92 -1.63,9.16l26.49 89.2 0 40.45c0,5.72 4.66,10.38 10.38,10.38z"/>
  <path class="fil0" d="M318.02 23.66l20.88 0c5.72,0 10.38,-4.66 10.38,-10.38l0 -1.16c0,-5.72 -4.66,-10.38 -10.38,-10.38l-44.97 0c-5.72,0 -10.38,4.66 -10.38,10.38l0 132.61c0,5.72 4.66,10.38 10.38,10.38l44.97 0c5.72,0 10.38,-4.66 10.38,-10.38l0 -1.16c0,-5.72 -4.66,-10.38 -10.38,-10.38l-20.88 0c-5.72,0 -10.38,-4.66 -10.38,-10.38l0 -24.16c0,-5.72 4.66,-10.38 10.38,-10.38l12.33 0c5.72,0 10.38,-4.66 10.38,-10.38l0 -1.16c0,-5.72 -4.66,-10.38 -10.38,-10.38l-12.33 0c-5.72,0 -10.38,-4.66 -10.38,-10.38l0 -21.97c0,-5.72 4.66,-10.38 10.38,-10.38z"/>
  <path class="fil0" d="M254.59 155.12l6.44 0c5.72,0 10.38,-4.66 10.38,-10.38l0 -132.61c0,-5.72 -4.66,-10.38 -10.38,-10.38l-0.72 0c-5.72,0 -10.38,4.66 -10.38,10.38l0 61.7c0,1.32 -0.96,2.42 -2.27,2.59 -1.31,0.17 -2.52,-0.64 -2.87,-1.91l-17.55 -65.08c-1.24,-4.59 -5.26,-7.68 -10.02,-7.68l-11.91 0c-5.72,0 -10.38,4.66 -10.38,10.38l0 132.61c0,5.72 4.66,10.38 10.38,10.38l0.94 0c5.72,0 10.38,-4.66 10.38,-10.38l0 -81.01c0,-1.32 0.96,-2.42 2.27,-2.59 1.31,-0.17 2.52,0.63 2.87,1.91l22.81 84.4c1.24,4.59 5.26,7.67 10.02,7.67z"/>
  <path class="fil0" d="M24.7 1.75l-14.32 0c-5.72,0 -10.38,4.66 -10.38,10.38l0 132.61c0,5.72 4.66,10.38 10.38,10.38l0.28 0c5.72,0 10.38,-4.66 10.38,-10.38l0 -69.15c0,-1.36 1.03,-2.48 2.38,-2.6 1.35,-0.12 2.56,0.8 2.8,2.13l10.84 59.52c1.13,6.22 6.43,10.64 12.75,10.64l0.98 0c6.39,0 11.74,-4.53 12.79,-10.84l9.66 -58.09c0.23,-1.35 1.44,-2.29 2.8,-2.18 1.36,0.12 2.39,1.24 2.39,2.61l0 67.95c0,5.72 4.66,10.38 10.38,10.38l2.03 0c5.72,0 10.38,-4.66 10.38,-10.38l0 -132.61c0,-5.72 -4.66,-10.38 -10.38,-10.38l-14.22 0c-5.17,0 -9.49,3.72 -10.26,8.83l-12.62 83.59c-0.19,1.28 -1.27,2.22 -2.57,2.23 -1.3,0.01 -2.39,-0.91 -2.6,-2.19l-13.65 -83.75c-0.83,-5.06 -5.11,-8.71 -10.24,-8.71z"/>
  <path class="fil0" d="M111.6 118.31c0,24.54 12.93,38.56 36.59,38.56 23.66,0 36.59,-14.02 36.59,-38.56l0 -79.75c0,-24.54 -12.93,-38.56 -36.59,-38.56 -23.66,0 -36.59,14.02 -36.59,38.56l0 79.75z"/>
  <path class="fil1" d="M124.95 49.13c0,34.07 31.04,35.27 31.04,59.8 0,8.52 -3.18,11.59 -8.23,11.59 -5.05,0 -8.23,-3.07 -8.23,-11.59l0 -6.76c0,-1.44 -1.17,-2.61 -2.61,-2.61l-9.79 0c-1.44,0 -2.61,1.17 -2.61,2.61l0 5.56c0,15.31 5.17,25.44 15.38,28.8 1.09,0.36 1.8,1.33 1.8,2.48l0 4.1c0,1.44 1.17,2.61 2.61,2.61l7.77 0c1.44,0 2.61,-1.17 2.61,-2.61l0 -4.11c0,-1.15 0.7,-2.12 1.79,-2.48 10.1,-3.36 15.39,-13.48 15.39,-28.79 0,-34.07 -31.04,-35.27 -31.04,-59.8 0,-8.52 2.89,-11.76 7.94,-11.76 5.05,0 7.94,3.24 7.94,11.76l0 2.33c0,1.44 1.17,2.61 2.61,2.61l9.79 0c1.44,0 2.61,-1.17 2.61,-2.61l0 -1.13c0,-15.3 -5.17,-25.28 -15.25,-28.62 -1.09,-0.36 -1.79,-1.34 -1.79,-2.48l0 -4.28c0,-1.44 -1.17,-2.61 -2.61,-2.61l-7.77 0c-1.44,0 -2.61,1.17 -2.61,2.61l0 4.31c0,1.13 -0.68,2.1 -1.75,2.47 -9.95,3.48 -15,13.45 -15,28.6l0 0z"/>
  <path class="fil2" d="M103.97 175.08l0 31.81 2.25 0 0 -35.8 -3.37 0 -7.47 31.66 -7.52 -31.66 -3.37 0 0 35.8 2.1 0 0 -31.71 7.57 31.66 2.35 0 7.47 -31.76zm40.92 23.88l1.79 7.93 2.35 0 -7.98 -35.86 -3.43 0 -7.83 35.86 2.15 0 1.79 -7.93 11.15 0zm-5.63 -25.21l5.27 23.17 -10.44 0 5.17 -23.17zm35.5 1.23l11.2 31.92 2.61 0 0 -35.8 -2.15 0 0 30.23 -10.74 -30.23 -3.07 0 0 35.8 2.15 0 0 -31.92zm52.43 23.99l1.79 7.93 2.35 0 -7.98 -35.86 -3.43 0 -7.83 35.86 2.15 0 1.79 -7.93 11.15 0zm-5.63 -25.21l5.27 23.17 -10.44 0 5.17 -23.17zm40.92 -2.97c-5.47,0 -7.72,3.89 -7.72,9.05l0 18.31c0,5.17 2.25,9.05 7.72,9.05 5.47,0 7.72,-3.89 7.72,-9.05l0 -9.72 -7.01 0 0 2.15 4.76 0 0 7.72c0,3.84 -1.48,6.7 -5.42,6.7 -3.94,0 -5.42,-2.86 -5.42,-6.7l0 -18.62c0,-3.84 1.48,-6.75 5.42,-6.75 3.94,0 5.42,2.92 5.42,6.75l0 2.82 2.25 0 0 -2.66c0,-5.17 -2.25,-9.05 -7.72,-9.05zm34.02 16.88l0 -14.42 11.76 0 0 -2.15 -14.12 0 0 35.8 14.12 0 0 -2.15 -11.76 0 0 -14.94 9.77 0 0 -2.15 -9.77 0zm35.6 -16.57l0 35.8 2.35 0 0 -16.01 3.73 0c4.09,0 6.7,1.33 6.7,6.09l0 5.63c0,1.94 0.15,3.22 0.77,4.3l2.45 0c-0.77,-1.18 -0.87,-2.81 -0.87,-4.3l0 -5.58c0,-3.89 -1.48,-6.5 -5.17,-7.31 3.53,-0.82 5.17,-3.22 5.17,-7.42l0 -3.12c0,-5.06 -2.2,-8.08 -7.67,-8.08l-7.47 0zm2.35 17.65l0 -15.5 5.06 0c3.89,0 5.37,2.3 5.37,6.14l0 3.37c0,4.81 -2.46,5.99 -6.65,5.99l-3.79 0z"/>
 </g>
</svg>
